<?xml version="1.0" encoding="UTF-8"?>
<svg xmlns="http://www.w3.org/2000/svg" version="1.1" xmlns:inkscape="http://www.inkscape.org/namespaces/inkscape" xmlns:sodipodi="http://sodipodi.sourceforge.net/DTD/sodipodi-0.dtd" xmlns:svg="http://www.w3.org/2000/svg" viewBox="0 0 25 24">
  <defs>
    <style>
      .cls-1 {
        fill: #25c0d4;
      }

      .cls-1, .cls-2 {
        stroke-width: 0px;
      }

      .cls-2 {
        fill: #2a3647;
      }
    </style>
  </defs>
  <g id="svg4" sodipodi:docname="close-icon-addtask_blue.svg">
    <sodipodi:namedview id="namedview6" bordercolor="#000000" borderopacity="0.25" inkscape:current-layer="svg4" inkscape:cx="10" inkscape:cy="21.3125" inkscape:deskcolor="#d1d1d1" inkscape:pagecheckerboard="0" inkscape:pageopacity="0.0" inkscape:showpageshadow="2" inkscape:window-height="1017" inkscape:window-maximized="1" inkscape:window-width="1920" inkscape:window-x="1912" inkscape:window-y="-8" inkscape:zoom="16" pagecolor="#ffffff" showgrid="false"/>
    <g id="path2">
      <path class="cls-2" d="M7,18.2c-.3,0-.5,0-.7-.3s-.3-.5-.3-.7,0-.5.3-.7l4.5-4.5-4.5-4.5c-.2-.2-.3-.5-.3-.7s0-.5.3-.7c.4-.4,1-.4,1.4,0l4.5,4.5,4.5-4.5c.4-.4,1-.4,1.4,0s.3.5.3.7,0,.5-.3.7l-4.5,4.5,4.5,4.5c.4.4.4,1,0,1.4s-1,.4-1.4,0l-4.5-4.5-4.5,4.5c-.2.2-.5.3-.7.3Z"/>
    </g>
    <g id="path883">
      <path class="cls-2" d="M6.7,18.2c-.2,0-.3-.1-.4-.3-.2-.2-.2-.4-.2-.6,0-.4-.2-.3,2.5-2.9l2.3-2.3-2.3-2.3c-2.6-2.6-2.5-2.5-2.5-2.9,0-.2,0-.3,0-.4,0-.2.3-.4.5-.5.1,0,.2,0,.4,0,.5,0,.2-.2,2.9,2.5l2.4,2.4,2.3-2.3c2.7-2.6,2.5-2.5,2.9-2.5s.3,0,.4,0c.3.2.5.4.5.8,0,.2,0,.3,0,.4,0,.2-.1.3-2.4,2.5l-2.4,2.4,2.4,2.4c2.3,2.3,2.4,2.4,2.4,2.5,0,.1,0,.2,0,.4,0,.4-.2.6-.5.8-.2,0-.2,0-.4,0-.5,0-.3.2-2.9-2.5l-2.3-2.3-2.3,2.3c-2,2-2.4,2.4-2.5,2.4-.2,0-.5,0-.7,0Z"/>
    </g>
    <g id="path1513">
      <path class="cls-2" d="M6.7,18.2c-.2,0-.3-.1-.4-.3-.2-.2-.2-.4-.2-.6,0-.4-.2-.3,2.5-2.9l2.3-2.3-2.3-2.3c-2.6-2.6-2.5-2.5-2.5-2.9,0-.2,0-.3,0-.4.1-.2.3-.4.6-.5.1,0,.2,0,.4,0,.4,0,.3-.1,2.8,2.5l2.3,2.3,2.3-2.3c1.9-1.9,2.4-2.3,2.5-2.4.1,0,.2,0,.4,0,.3,0,.3,0,.5,0,.3.2.5.4.5.8,0,.2,0,.3,0,.4,0,.2-.1.3-2.4,2.5l-2.4,2.4,2.4,2.4c2.3,2.3,2.4,2.4,2.4,2.5,0,.1,0,.2,0,.4,0,.4-.2.6-.5.8-.2,0-.2,0-.5,0-.2,0-.3,0-.4,0-.1,0-.6-.5-2.5-2.4l-2.3-2.3-2.3,2.3c-2,2-2.4,2.4-2.5,2.4-.2,0-.5,0-.7,0Z"/>
    </g>
    <g id="path1515">
      <path class="cls-1" d="M10.6,9c-1.4-1.4-1.6-1.6-1.6-1.6s.2.2,1.6,1.6l1.6,1.6,1.6-1.6c1-1,1.6-1.6,1.6-1.6,0,0,0,0-.2.2-.1.1-.8.8-1.6,1.6-.8.8-1.4,1.4-1.4,1.4s-.7-.7-1.6-1.6Z"/>
    </g>
    <g id="path1517">
      <path class="cls-2" d="M10.6,12.3c.2-.2.3-.3.3-.3,0,0-.6-.6-1.4-1.4-.8-.8-1.6-1.6-1.9-1.9l-.5-.5v-.8h1.9l1.6,1.6c.9.9,1.6,1.6,1.6,1.6,0,0,.7-.7,1.6-1.6l1.6-1.6h.3v2.5l-1.1,1.1-1.1,1.1.3.3.3.3h-3.9l.3-.3Z"/>
    </g>
    <g id="path1519">
      <path class="cls-1" d="M10.5,12.3c.2-.2.3-.3.3-.3s-.8-.9-1.9-1.9c-1.4-1.4-1.9-1.9-1.9-1.9s.2.2.8.8c.4.4,1.3,1.3,1.9,1.9l1.1,1.1-.3.3c-.2.2-.3.3-.3.3s.1-.1.3-.3Z"/>
    </g>
    <g id="path1521">
      <path class="cls-1" d="M6.7,7.8c-.2-.2-.4-.4-.4-.4-.2-.2-.2-.4-.2-.7,0-.1,0-.2,0-.4.1-.2.3-.4.6-.5,0,0,.1,0,.2,0,0,0,.2,0,.2,0,.2,0,.4.1.6.2,0,0,1.4,1.4,1.4,1.4,0,0,0,0,0,0,0,0-.2-.2-.4-.3-.4-.4-.5-.5-.7-.7-.4-.4-.6-.5-.8-.6,0,0-.1,0-.2,0-.1,0-.2,0-.3,0-.1,0-.2,0-.3.2,0,0-.1.1-.2.2,0,.1-.2.2-.2.3,0,0,0,.1,0,.3,0,.2,0,.2,0,.2,0,.2.2.4.9,1.1,0,0,0,0,0,0,0,0,0,0,0,0,0,0-.2-.2-.4-.4Z"/>
    </g>
    <path id="path1523" class="cls-1" d="M0,0"/>
    <path id="path1525" class="cls-1" d="M0,0"/>
    <path id="path1527" class="cls-1" d="M0,0"/>
    <g id="path1529">
      <path class="cls-2" d="M7.7,8.8c-.9-1-1.2-1.2-1.4-1.4-.2-.2-.3-.3-.3-.5,0,0,0,0,0,0h0s0,0,0,0c0,0,0-.2,0-.3,0-.1,0-.2.1-.3.1-.2.3-.4.5-.5,0,0,.1,0,.2,0,0,0,.2,0,.3,0,.2,0,.4,0,.5.2,0,0,1.4,1.4,1.4,1.4s-.2-.2-.6-.6c-.8-.8-1-.9-1.2-1-.1,0-.3,0-.4,0,0,0-.2,0-.2,0-.1,0-.2.2-.3.3,0,0-.1.2-.2.3,0,0,0,.1,0,.3,0,0,0,.1,0,.1,0,0,0,0,0-.1,0-.2,0-.2,0-.4,0-.1.1-.2.2-.3.1-.1.3-.2.4-.3,0,0,.1,0,.2,0,0,0,.2,0,.3,0,.2,0,.4.2,1.1.9.1.1.8.8,1.5,1.5l1.3,1.3h-2.8l-.6-.6Z"/>
    </g>
    <path id="path1531" class="cls-1" d="M0,0"/>
    <g id="path1533">
      <path class="cls-1" d="M17.1,8.5s.2-.2.3-.3c.6-.6.8-.9.9-1,0,0,0,0,0-.1,0-.1,0-.2,0-.3,0,0,0-.1,0-.1,0-.2-.1-.4-.2-.5,0,0-.2-.1-.3-.2-.2,0-.2,0-.5,0-.2,0-.2,0-.3,0,0,0-.1,0-.2,0-.1.1-.5.4-1.3,1.2-.2.2-.3.3-.3.3,0,0,1.3-1.4,1.4-1.4.1,0,.2-.2.4-.2,0,0,.1,0,.2,0,.1,0,.2,0,.2,0,.4,0,.7.4.7.8,0,.2,0,.5-.1.7,0,0,0,0-.7.7-.6.6-.6.6-.6.6s0,0,0,0Z"/>
    </g>
    <path id="path1535" class="cls-1" d="M0,0"/>
    <g id="path1537">
      <path class="cls-1" d="M15.6,10c1.4-1.4,1.5-1.5,1.5-1.5,0,0,0,0-1.5,1.5-1.3,1.3-1.5,1.5-1.5,1.5s.2-.2,1.5-1.5Z"/>
    </g>
    <g id="path1539">
      <path class="cls-1" d="M14.9,13.3l-1.3-1.3.3-.3c.1-.1.3-.3.3-.3s0,0,0,0c0,0,0,0,0,0,0,0,0,0-.2.2l-.2.2,1.3,1.3c1.2,1.2,1.3,1.3,1.3,1.3,0,0,0,0-1.3-1.3h0Z"/>
    </g>
    <path id="path1541" class="cls-1" d="M0,0"/>
    <path id="path1543" class="cls-1" d="M0,0"/>
    <path id="path1545" class="cls-1" d="M0,0"/>
    <g id="path1547">
      <path class="cls-2" d="M9.5,14.4v-1.1l.7-.7c.4-.4.7-.7.7-.7s-.3-.3-.7-.7l-.7-.7v-.4h2.4l.2.2c0,0,.2.2.2.2s0,0,.2-.2l.2-.2h1.4s1.4,0,1.4,0l-.9.9-.9.9,1.6,1.6c.9.9,1.7,1.7,1.7,1.8l.2.2h-2.8l-1.1-1.1-1.1-1.1-1.1,1.1-1.1,1.1h-.6v-1.1Z"/>
    </g>
    <g id="path1549">
      <path class="cls-1" d="M11.2,14.4c.6-.6,1.1-1.1,1.1-1.1,0,0,2.1,2.1,2.1,2.1,0,0-.5-.5-1.1-1l-1-1-1,1c-.9.9-1,1-1.1,1s.1-.1,1-1.1Z"/>
    </g>
    <g id="path1551">
      <path class="cls-1" d="M17.4,18.2c-.2,0-.4,0-.5-.2,0,0-2.5-2.5-2.5-2.5,0,0,.4.3.8.8,1.3,1.3,1.7,1.7,1.9,1.8,0,0,.1,0,.2,0,0,0,.1,0,.3,0,.3,0,.3,0,.5,0,.1,0,.2-.1.3-.2.2-.2.3-.4.2-.7,0,0,0-.1,0-.2,0,0,0-.2-.1-.2-.1-.2-.4-.5-1.5-1.6-.3-.3-.6-.6-.6-.6s0,0,0,0c0,0,0,0,0,0,0,0,2,2,2,2,.2.2.3.6.2.9,0,.2-.1.3-.3.5,0,0-.2.2-.3.2,0,0-.2,0-.3,0,0,0-.1,0-.2,0h0Z"/>
    </g>
    <g id="path1553">
      <path class="cls-1" d="M6.9,18.2c-.2,0-.4-.1-.6-.3-.4-.4-.4-.9,0-1.3,0,0,2.5-2.5,2.5-2.5,0,0-.3.3-.7.7-1.2,1.2-1.5,1.5-1.7,1.7-.2.2-.2.3-.2.4,0,0,0,.3,0,.4,0,.2,0,.3.3.5.1.1.2.2.3.2.1,0,.2,0,.3,0,.1,0,.2,0,.3,0,.1,0,.2,0,.2,0,.2-.1.6-.6,2.1-2.1.3-.3.5-.5.5-.5s0,0,0,0c0,0-2.5,2.5-2.5,2.5-.1.1-.3.2-.4.2,0,0-.2,0-.3,0h0Z"/>
    </g>
    <g id="path1555">
      <path class="cls-1" d="M8.7,14.2s.4-.4.8-.8c.4-.4.8-.8.8-.8,0,0-.4.4-.8.8s-.8.8-.8.8Z"/>
    </g>
    <path id="path1557" class="cls-1" d="M0,0"/>
  </g>
</svg>